<svg xmlns="http://www.w3.org/2000/svg" width="192.754" height="192.758" id="svg2"><defs id="defs4"><marker id="ArrowEnd" viewBox="0 0 10 10" refY="5" markerWidth="4" orient="auto"><path d="M0 0l10 5-10 5z" id="path7"/></marker><marker id="ArrowStart" viewBox="0 0 10 10" refX="10" refY="5" markerWidth="4" orient="auto"><path d="M10 0L0 5l10 5z" id="path10"/></marker></defs><g id="g12" fill-rule="evenodd"><path d="M189.918 96.379c0 51.664-41.879 93.543-93.543 93.543-51.66 0-93.543-41.879-93.543-93.543 0-51.66 41.883-93.543 93.543-93.543 51.664 0 93.543 41.883 93.543 93.543" id="path16" fill="#ffbe00"/><path d="M77.109 41.25V5.879a87.9 87.9 0 0 0-4.371 1.039 80.558 80.558 0 0 0-1.992.547 92.387 92.387 0 0 0-29.531 14.656V41.25h35.894" id="path18" fill="#fff"/><path d="M78.133 79.215v34.683l34.687-34.683H78.133" id="path20" fill="#e32118"/><path d="M158.687 28.027a77.167 77.167 0 0 0-1.164-1.043c-.453-.398-.914-.785-1.371-1.176a99.798 99.798 0 0 0-4.141-3.316v17.527l9.411-9.41a101.069 101.069 0 0 0-2.735-2.586" id="path22" fill="#e32118"/><path d="M40.191 79.215H5.402a92.636 92.636 0 0 0-1.613 17.218c0 6.348.648 12.594 1.887 18.672h34.515v-35.89" id="path24" fill="#e32118"/><path d="M41.195 78.168h35.934V42.273H41.195v35.895z" id="path26" fill="#e32118"/><path d="M41.195 116.152v34.684l34.684-34.684H41.195" id="path28" fill="#e32118"/><path d="M115.074 42.273v34.684l34.684-34.684h-34.684" id="path30" fill="#e32118"/><path d="M114.066 5.551a93.331 93.331 0 0 0-17.703-1.696c-6.238 0-12.332.625-18.23 1.809V41.23h35.933V5.551" id="path32" fill="#e32118"/><path d="M23.195 153.09a105.07 105.07 0 0 0 2.117 2.632c.614.731 1.231 1.457 1.867 2.172.243.274.485.539.731.809.855.941 1.73 1.871 2.633 2.785l8.398-8.398H23.195" id="path34" fill="#e32118"/><path d="M40.191 22.898A93.465 93.465 0 0 0 22.093 41.23h18.098V22.898" id="path36" fill="#e32118"/><path d="M40.172 116.129H5.91a91.4 91.4 0 0 0 2.547 9.359l.14.438a93.735 93.735 0 0 0 1.313 3.648c.137.352.266.703.406 1.051.258.656.527 1.308.801 1.961.359.84.726 1.679 1.109 2.511.25.539.504 1.075.766 1.61.402.832.816 1.66 1.242 2.48.266.504.539 1.004.813 1.504a89.703 89.703 0 0 0 2.156 3.742 88.12 88.12 0 0 0 1.539 2.434c.215.332.426.668.648.996.668.996 1.36 1.977 2.067 2.945.179.25.363.5.547.746.125.172.265.336.394.508h17.567l.203-.207v-35.726" id="path38" fill="#fff"/><path d="M77.109 79.191H41.215v35.938h35.687l.207-.207V79.191" id="path40" fill="#fff"/><path d="M114.05 42.254H78.156v35.933h35.687l.207-.203v-35.73" id="path42" fill="#fff"/><path d="M40.172 42.254H21.347A92.268 92.268 0 0 0 7.972 68.886c-.195.633-.386 1.27-.57 1.911l-.047.164a92.95 92.95 0 0 0-1.746 7.226h34.563V42.254" id="path44" fill="#fff"/><path d="M150.984 21.695l-.078-.055a89.245 89.245 0 0 0-2.684-1.882c-.414-.282-.828-.563-1.246-.84a96.992 96.992 0 0 0-2.554-1.614 105.861 105.861 0 0 0-4.004-2.308c-.539-.293-1.082-.574-1.621-.856a95.385 95.385 0 0 0-5.688-2.695 93.154 93.154 0 0 0-3.176-1.301 92.558 92.558 0 0 0-14.84-4.371V41.25h35.688l.207-.203V21.699" id="path46" fill="#fff"/><path d="M162.297 31.48L31.414 162.363c17.429 17.176 40.465 26.649 64.953 26.649 51.047 0 92.574-41.532 92.574-92.579 0-24.484-9.473-47.519-26.644-64.953" id="path48" fill="#1d3a8d"/><path d="M95.879 87.312l-2.149 6.614h-8.531l6.902 5.015-2.636 8.11 6.898-5.012 6.902 5.012-2.636-8.11 6.898-5.015H99l-2.637-8.114-.488 1.5" id="path50" fill="#ffbe00"/><path d="M94.101 94.953h.375s1.289-3.977 1.891-5.824c.598 1.847 1.891 5.824 1.891 5.824h6.121l-4.953 3.598 1.89 5.82-4.949-3.598-4.953 3.598c.597-1.848 1.89-5.82 1.89-5.82l-4.953-3.598h5.75" id="path52" fill="#e32118"/><path d="M145.297 70.047H114.05v8.961h21.176V114c-5.41-4.785-12.289-7.438-19.539-7.438-16.293 0-29.547 13.254-29.547 29.547 0 16.289 13.254 29.543 29.547 29.543 7.957 0 15.567-3.262 21.11-8.937l.003 6.125h14.743v-7.875h-5.735V70.047h-.511zm-47.829 66.062c0-10.047 8.172-18.223 18.219-18.223s18.219 8.176 18.219 18.223c0 10.043-8.172 18.219-18.219 18.219s-18.219-8.176-18.219-18.219" id="path54" fill="#ffbe00"/><path d="M135.738 71.07h9.047v84.918h5.734v5.828h-12.695v-7.68l-.895.997a28.568 28.568 0 0 1-21.242 9.496c-15.726 0-28.523-12.797-28.523-28.524 0-15.726 12.797-28.519 28.523-28.519 7.371 0 14.363 2.808 19.699 7.902l.868.832V77.98h-21.18v-6.91h20.668-.004zm-39.297 65.039c0 10.61 8.633 19.242 19.246 19.242 10.61 0 19.242-8.632 19.242-19.242 0-10.613-8.632-19.246-19.242-19.246-10.613 0-19.246 8.633-19.246 19.246" id="path56" fill="#fff"/></g></svg>