<svg width="205" height="250" viewBox="0 0 205 250" xmlns="http://www.w3.org/2000/svg"><title>logo--sevilla</title><defs><radialGradient cx="50.001%" cy="50.001%" fx="50.001%" fy="50.001%" r="50.007%" id="radialGradient-1"><stop stop-color="#7C4C23" offset="0%"/><stop stop-color="#371B02" offset="100%"/></radialGradient><radialGradient cx="54.426%" cy="-305.65%" fx="54.426%" fy="-305.65%" r="222.358%" id="radialGradient-2"><stop stop-color="#EBBD50" offset="0%"/><stop stop-color="#975C2B" offset="36.52%"/><stop stop-color="#371B02" offset="100%"/></radialGradient><radialGradient cx="28.068%" cy="102.357%" fx="28.068%" fy="102.357%" r="137.077%" id="radialGradient-3"><stop stop-color="#EBBD50" offset="0%"/><stop stop-color="#975C2B" offset="36.52%"/><stop stop-color="#371B02" offset="100%"/></radialGradient><radialGradient cx="71.296%" cy="-41.324%" fx="71.296%" fy="-41.324%" r="140.069%" id="radialGradient-4"><stop stop-color="#EBBD50" offset="0%"/><stop stop-color="#975C2B" offset="36.52%"/><stop stop-color="#371B02" offset="100%"/></radialGradient><radialGradient cx=".144%" cy="77.535%" fx=".144%" fy="77.535%" r="121.485%" id="radialGradient-5"><stop stop-color="#EBBD50" offset="0%"/><stop stop-color="#975C2B" offset="36.52%"/><stop stop-color="#371B02" offset="100%"/></radialGradient><radialGradient cx="103.335%" cy="133.915%" fx="103.335%" fy="133.915%" r="260.365%" id="radialGradient-6"><stop stop-color="#EBBD50" offset="0%"/><stop stop-color="#975C2B" offset="36.52%"/><stop stop-color="#371B02" offset="100%"/></radialGradient><radialGradient cx="-127.761%" cy="9.311%" fx="-127.761%" fy="9.311%" r="263.52%" id="radialGradient-7"><stop stop-color="#EBBD50" offset="0%"/><stop stop-color="#975C2B" offset="36.52%"/><stop stop-color="#371B02" offset="100%"/></radialGradient><radialGradient cx="-273.622%" cy="39.721%" fx="-273.622%" fy="39.721%" r="396.28%" id="radialGradient-8"><stop stop-color="#EBBD50" offset="0%"/><stop stop-color="#975C2B" offset="36.52%"/><stop stop-color="#371B02" offset="100%"/></radialGradient><radialGradient cx="71.416%" cy="30.128%" fx="71.416%" fy="30.128%" r="139.481%" id="radialGradient-9"><stop stop-color="#EBBD50" offset="0%"/><stop stop-color="#975C2B" offset="36.52%"/><stop stop-color="#371B02" offset="100%"/></radialGradient><radialGradient cx="-63.08%" cy="-5.003%" fx="-63.08%" fy="-5.003%" r="279.231%" id="radialGradient-10"><stop stop-color="#EBBD50" offset="0%"/><stop stop-color="#975C2B" offset="36.52%"/><stop stop-color="#371B02" offset="100%"/></radialGradient></defs><g id="Champions-League" fill="none" fill-rule="evenodd"><g id="Desktop" transform="translate(-206 -643)"><g id="logo--sevilla" transform="translate(206 643)"><g id="Calque_1"><path d="M204.293 5.977l-.136-3.136-1.506 1.228c-12.964 10.575-28.606 15.717-47.819 15.717-19.393 0-37.749-6.823-51.684-19.21L102.5 0l-.648.576c-13.936 12.387-32.29 19.21-51.684 19.21-19.214 0-34.855-5.141-47.818-15.717L.844 2.841.707 5.977l-.051.858c-2.79 42.692 3.326 84.105 18.177 123.086 13.627 35.767 34.538 69.404 62.15 99.975l.002.002c10.387 11.437 20.827 19.246 20.932 19.323l.583.433.581-.433c.105-.077 10.546-7.886 20.933-19.323l.002-.002c27.613-30.571 48.524-64.207 62.15-99.975 14.852-38.98 20.967-80.394 18.178-123.086l-.05-.858z" id="Shape" fill="#000"/><path d="M202.397 6.957l-.012-.206c-13.028 10.07-28.6 14.988-47.553 14.988-19.576 0-38.118-6.804-52.33-19.153l-.002.001h-.002c-14.212 12.349-32.754 19.152-52.33 19.152-18.952 0-34.525-4.917-47.553-14.988l-.012.206a304.23 304.23 0 0 0-.652 19.866c0 35.398 6.269 69.761 18.705 102.402 13.54 35.54 34.324 68.97 61.774 99.36 8.875 9.772 17.769 16.847 20.07 18.624h.001c2.301-1.777 11.195-8.852 20.07-18.624 27.45-30.39 48.234-63.82 61.774-99.36 12.436-32.641 18.703-67.004 18.703-102.402 0-6.588-.216-13.211-.651-19.866z" id="Shape" fill="#B4742A"/><path d="M124.366 105.542c-.89-10.657-9.373-19.147-20.018-20.036V45.431l.123-.077c28.83-18.1 66.012-15.809 90.422 5.573l2.065 1.809a280.64 280.64 0 0 1-9.895 52.806h-62.697zm-23.728-20.035C90 86.404 81.526 94.89 80.634 105.542H17.937a280.699 280.699 0 0 1-9.895-52.806l2.067-1.81c24.41-21.38 61.592-23.673 90.42-5.572l.11.068v40.085h-.001z" id="Shape" fill="#FFF"/><path d="M84.032 107.679c0 10.198 8.255 18.468 18.445 18.468 10.191 0 18.493-8.27 18.493-18.468 0-10.246-8.302-18.516-18.493-18.516-10.19 0-18.445 8.27-18.445 18.516" id="Shape" fill="#371B02"/><path d="M85.703 103.739c0-5.684 4.597-10.29 10.273-10.29 5.668 0 10.26 4.607 10.26 10.29 0 5.68-4.592 10.28-10.26 10.28-5.676 0-10.273-4.6-10.273-10.28" id="Shape" fill="url(#radialGradient-1)"/><path d="M101.056 120.805a19.593 19.593 0 0 1-8.51-.43c-1.291-.344-1.983.95-.864 1.766a18.125 18.125 0 0 0 9.504 3.57c.562.046 1.075-.427 1.075-.987v-2.926c0-.692-.513-1.121-1.205-.993z" id="Shape" fill="url(#radialGradient-2)"/><path d="M92.584 101.697l2.886 1.678c.47.255 1.115.082 1.374-.346 1.806-3.01 6.579-7.967 12.51-10.164 1.076-.424 1.12-1.418.043-1.894-2.146-.856-4.47-1.375-6.963-1.375-4.086 0-12.385 10.63-9.85 12.101z" id="Shape" fill="url(#radialGradient-3)"/><path d="M101.272 114.867c-3.482-.046-10.19-1.724-15.047-5.772-.902-.73-1.767-.258-1.637.908a17.995 17.995 0 0 0 2.28 6.715c2.062 3.53 15.393 5.423 15.393 2.537v-3.402c0-.513-.475-.986-.99-.986z" id="Shape" fill="url(#radialGradient-4)"/><path d="M97.276 103.245c-.259.428-.09 1.116.385 1.376l4.259 2.454h.985l14.148-8.137c.52-.299.641-.943.303-1.42-.688-1.038-4.088-5.207-5.461-4.908-7.012 1.592-12.77 7.573-14.619 10.635z" id="Shape" fill="url(#radialGradient-5)"/><path d="M87.858 98.938l2.493 1.462c.6.346 1.205.086 1.46-.519.773-2.107 2.238-4.861 4.644-7.188.946-.943.13-2.193-1.119-1.631-3.179 1.332-5.888 3.61-7.823 6.457-.303.476-.173 1.159.345 1.419z" id="Shape" fill="url(#radialGradient-6)"/><path d="M112.625 102.034l-2.925 1.722c-.47.264-.644.908-.388 1.336 1.719 3.06 3.615 9.69 2.54 15.93-.216 1.161.643 1.68 1.59.988 1.844-1.416 3.438-3.228 4.685-5.337 2.021-3.575-3.01-16.057-5.502-14.639z" id="Shape" fill="url(#radialGradient-7)"/><path d="M118.73 99.755c-.259-.514-.907-.731-1.374-.428l-2.537 1.462c-.604.346-.69.99-.263 1.505 1.42 1.726 3.051 4.392 3.873 7.62.345 1.333 1.805 1.205 1.978-.127a17.977 17.977 0 0 0-1.676-10.032z" id="Shape" fill="url(#radialGradient-8)"/><path d="M87.643 99.409c-.515-.298-1.12-.126-1.374.436-.561 1.116-2.454 6.155-1.508 7.187 4.86 5.291 12.9 7.277 16.468 7.358.557 0 1.032-.473 1.032-1.03v-4.95l-.514-.861-14.104-8.14z" id="Shape" fill="url(#radialGradient-9)"/><path d="M107.55 105.01l-4.299 2.45-.471.865v16.31c0 .603.471 1.037 1.029.992 1.248-.084 6.54-.947 6.968-2.28 2.15-6.886-.13-14.854-1.85-17.95-.302-.517-.903-.69-1.378-.387z" id="Shape" fill="url(#radialGradient-10)"/><path d="M179.736 127.466c-13.322 34.965-33.786 67.873-60.824 97.807-6.31 6.95-12.594 12.46-16.412 15.612-3.818-3.153-10.104-8.665-16.422-15.622-27.029-29.924-47.492-62.832-60.814-97.797a279.78 279.78 0 0 1-6.229-18.209h61.6c.942 11.268 10.369 20.12 21.866 20.12s20.923-8.852 21.865-20.12h61.6a279.788 279.788 0 0 1-6.23 18.209z" id="Shape" fill="#FFF"/><path d="M197.33 48.127c-25.631-22.449-64.627-24.884-94.83-5.92-30.203-18.964-69.198-16.529-94.831 5.92a289.727 289.727 0 0 1-.786-21.304c0-3.66.088-7.356.225-11.06 12.29 7.325 26.463 10.914 43.06 10.914 19.275 0 37.691-6.266 52.332-17.71 14.64 11.444 33.056 17.71 52.332 17.71 16.597 0 30.769-3.59 43.06-10.913a299.3 299.3 0 0 1 .225 11.059c0 7.143-.266 14.246-.786 21.304zm-94.83 81.25c-2.424 0-4.755-.398-6.935-1.125v106.561a164.787 164.787 0 0 0 6.935 6.072 164.905 164.905 0 0 0 6.934-6.071V128.252a21.878 21.878 0 0 1-6.934 1.125zm-36.296-20.12v91.89a338.182 338.182 0 0 0 13.868 17.284V109.257H66.204zm-29.362 0v44.54A302.587 302.587 0 0 0 50.71 178.54v-69.283H36.84zm88.086 0v109.174a339.072 339.072 0 0 0 13.868-17.284v-91.89h-13.868zm29.362 0v69.283a302.587 302.587 0 0 0 13.868-24.743v-44.54H154.29z" id="Shape" fill="#EB2626"/><path d="M101.074 100.66c-1.184-1.357-2.886-2.205-4.784-2.202-.944-.011-1.803.194-2.708.646a.922.922 0 0 0-.715-.337h-3.203a.937.937 0 0 0-.658.272.94.94 0 0 0-.27.658v.712a.925.925 0 0 0 .928.93h.262c.074 0 .127.004.16.008 0 .002.002.004.004.006.017.103.042.549.035 1.523v11.001h-.46a.94.94 0 0 0-.659.273.94.94 0 0 0-.27.658v.712c0 .245.097.484.27.658a.94.94 0 0 0 .658.272h5.258a.92.92 0 0 0 .656-.272.925.925 0 0 0 .273-.658v-.712c0-.244-.1-.485-.272-.658a.94.94 0 0 0-.657-.273h-.948a1.15 1.15 0 0 1-.14-.006l-.011-.013-.003-.026a7.028 7.028 0 0 1-.022-.602 6.813 6.813 0 0 0 2.311.373c2.043.017 3.819-.871 5.094-2.48 1.165-1.476 1.76-3.267 1.756-5.187 0-2.06-.696-3.919-1.885-5.276zm-4.703 10.347c-.918-.012-1.667-.328-2.575-1.245v-7.598c.668-.717 1.088-.874 1.79-.896.925-.002 1.852.532 2.596 1.56.737 1.021 1.23 2.498 1.227 4.128 0 1.237-.375 2.277-.934 2.977-.568.7-1.277 1.069-2.104 1.074z" id="Shape" fill="#FFF"/><path d="M116.116 114.752l-.291-.45a.93.93 0 0 0-1.052-.385c-.401.12-.43.124-.545.126-.277.034-1.13-.28-2.47-1.062.414-.205.8-.47 1.16-.796 1.664-1.434 2.602-3.775 2.609-6.202 0-2.052-.668-3.9-1.82-5.253-1.148-1.354-2.81-2.205-4.667-2.2a5.567 5.567 0 0 0-2.644.626.92.92 0 0 0-.756-.39h-3.09a.933.933 0 0 0-.928.931v.711a.927.927 0 0 0 .929.931h.252c.054 0 .095.003.123.005.017.103.043.555.036 1.532v11.002h-.411a.933.933 0 0 0-.93.93v.711c0 .246.1.485.273.659a.937.937 0 0 0 .657.272h5.071a.92.92 0 0 0 .657-.273.919.919 0 0 0 .273-.658v-.566a27.62 27.62 0 0 0 1.367.815c1.152.641 2.39 1.073 3.494 1.085h.021c.943 0 1.815-.318 2.488-.873.368-.3.452-.83.194-1.228zm-9.516-.88l-.006-.007a2.668 2.668 0 0 1-.014-.2c.1.068.206.138.318.212h-.19c-.046 0-.082-.003-.108-.005zm1.916-12.605c.822-.003 1.678.5 2.373 1.494.688.984 1.15 2.407 1.148 3.957.004 1.323-.282 2.4-.684 3-.556.854-1.377 1.297-2.04 1.29-.58-.01-.989-.143-2.364-1.148l-.34-.245a.745.745 0 0 0-.04-.026v-7.336c.684-.738 1.256-.973 1.947-.986z" id="Shape" fill="#FFF"/><path d="M92.867 100.622c1.349-.925 2.235-1.233 3.424-1.233 3.242 0 5.74 2.846 5.74 6.547 0 1.731-.524 3.297-1.551 4.601-1.148 1.424-2.579 2.135-4.37 2.135-1.189 0-2.136-.26-3.243-.901v.593c0 1.708 0 1.803.241 2.087.201.261.423.356.866.356h.947v.711h-5.257v-.71h1.39v-11.932c0-1.732-.02-1.803-.242-2.112-.201-.26-.423-.356-.886-.356h-.262v-.711h3.203v.925zm0 9.512c1.107 1.233 2.215 1.803 3.504 1.803 2.255 0 3.967-2.135 3.967-4.981 0-3.63-2.154-6.619-4.753-6.619-1.047 0-1.852.427-2.718 1.471v8.326zm12.773-9.37c1.166-.925 2.138-1.304 3.401-1.304 3.148 0 5.558 2.822 5.558 6.523 0 2.182-.875 4.294-2.293 5.503-.836.736-1.632 1.044-2.877 1.115l.35.238c2.255 1.47 3.615 2.134 4.45 2.134.253 0 .428-.047.817-.166l.29.451c-.524.428-1.165.664-1.923.664-.836 0-2.001-.38-3.05-.972-.7-.38-2.04-1.234-2.954-1.85a14.432 14.432 0 0 1-1.768-1.329v.594c0 1.707 0 1.802.233 2.087.194.26.408.355.835.355h.914v.712h-5.071v-.712h1.34v-11.931c0-1.732-.019-1.803-.233-2.111-.194-.261-.408-.356-.855-.356h-.252v-.712h3.09v1.067h-.001zm0 10.39l.428-.783.33.237c1.38 1.02 2.06 1.329 2.915 1.329 1.05 0 2.118-.641 2.817-1.708.545-.83.836-2.064.836-3.511 0-3.463-2.021-6.381-4.45-6.381-1.069 0-2.002.498-2.876 1.565v9.252z" id="Shape" fill="#000"/></g></g></g></g></svg>