<svg xmlns="http://www.w3.org/2000/svg" width="232.876" height="100mm" viewBox="0 0 61.615 100" shape-rendering="geometricPrecision" text-rendering="geometricPrecision" image-rendering="optimizeQuality" fill-rule="evenodd" clip-rule="evenodd"><defs><style>.fil0,.fil1{fill-rule:nonzero}.fil1{fill:#000}.fil0{fill:#fff}</style></defs><g id="Ebene_x0020_1"><g id="_87915808"><path id="_87899992" class="fil0" d="M61.615 50.251L30.79 100-.001 50.251 30.79 0z"/><path id="_87897784" class="fil1" d="M59.78 50.251L30.789 96.696 1.813 50.202 30.789 3.304z"/><path id="_87899032" class="fil0" d="M54.9 50.251L30.789 88.367 6.715 50.25 30.79 11.633z"/><path id="_41575512" class="fil1" d="M53.102 50.251L30.789 84.99 8.44 50.251l22.438-35.396z"/><path id="_87694552" class="fil0" d="M36.044 26.129l4.067 6.788H21.285l4.366-6.788z"/><path id="_44438744" class="fil0" d="M36.103 35.288c2.818.646 5.637 3.053 6.458 5.872.764 3.111.647 6.928-1.878 9.1 2.056 3.112 3.112 8.103.822 11.509-1.35 1.937-3.42 3.259-5.652 3.553H20.954V35.288s10.158-.058 15.149 0z"/><path id="_44441504" class="fil1" d="M35.81 36.521c2.65.47 4.932 3.112 5.754 5.637.47 2.994-.236 6.106-2.701 7.927.294 1.114 1.527 1.937 1.82 3.111 1.174 2.643 1.115 6.46-.88 8.69-1.275 1.396-2.808 1.783-4.904 1.93H22.458V36.55l13.351-.029z"/><path id="_44441400" class="fil0" d="M48.404 46.312l2.018 3.94s-1.174 1.564-2.054 2.812h-4.735c-.234-.998-.572-1.981-1.1-2.862.953-1.224 1.658-2.48 1.834-3.89 1.528.044 2.533 0 4.038 0z"/><path id="_87493184" class="fil0" d="M19.31 46.326l-.007 6.738h-6.679l-2.092-2.813 2.437-3.925z"/><path id="_87493096" class="fil0" d="M34.349 53.064c2.422.477 2.826 4.771 0 5.688h-7.156v-5.688s4.155-.02 7.156 0z"/><path id="_44140288" class="fil1" d="M33.909 54.055c1.54.404 2.018 2.899 0 3.56H28.22v-3.56h5.688z"/><path id="_87837792" class="fil0" d="M40.514 67.009l-4.55 6.826h-10.68l-4.11-6.826z"/><path id="_44440688" class="fil0" d="M34.404 41.919c2.423.477 2.825 4.77 0 5.688h-7.156V41.92s4.156-.02 7.156 0z"/><path id="_44440616" class="fil1" d="M33.963 42.91c1.542.403 2.018 2.899 0 3.56h-5.688v-3.56h5.688z"/></g></g></svg>